<svg width="554" height="554" viewBox="0 0 554 554" fill="none" xmlns="http://www.w3.org/2000/svg">
<path d="M529 283.297V270.703C529 263.745 523.362 258.109 516.4 258.109H295.9V226.625H352.6C366.515 226.625 377.8 215.346 377.8 201.438V100.688C377.8 86.7793 366.515 75.5 352.6 75.5H201.4C187.485 75.5 176.2 86.7793 176.2 100.688V201.438C176.2 215.346 187.485 226.625 201.4 226.625H258.1V258.109H37.6C30.6385 258.109 25 263.745 25 270.703V283.297C25 290.255 30.6385 295.891 37.6 295.891H119.5V327.375H75.4C61.4849 327.375 50.2 338.654 50.2 352.562V453.312C50.2 467.221 61.4849 478.5 75.4 478.5H201.4C215.315 478.5 226.6 467.221 226.6 453.312V352.562C226.6 338.654 215.315 327.375 201.4 327.375H157.3V295.891H396.7V327.375H352.6C338.685 327.375 327.4 338.654 327.4 352.562V453.312C327.4 467.221 338.685 478.5 352.6 478.5H478.6C492.515 478.5 503.8 467.221 503.8 453.312V352.562C503.8 338.654 492.515 327.375 478.6 327.375H434.5V295.891H516.4C523.362 295.891 529 290.255 529 283.297ZM226.6 176.25V125.875H327.4V176.25H226.6ZM176.2 428.125H100.6V377.75H176.2V428.125ZM453.4 428.125H377.8V377.75H453.4V428.125Z" fill="#63C551"/>
</svg>
